# xmcd CD database file
#
# Track frame offsets:
#	182
#	15745
#	37370
#	55557
#	71445
#	89995
#	106970
#	119232
#	134920
#	155420
#	174220
#	190057
#
# Disc length: 2770 seconds
#
# Revision: 2
# Processed by: cddbd v1.5.2PL0 Copyright (c) Steve Scherf et al.
# Submitted via: CDex 1.40Beta8
#
DISCID=b00ad00c
DTITLE=Jeff Turner - Different Directions
DYEAR=1991
DGENRE=Country
TTITLE0=There`s Music In The Mountains
TTITLE1=The Ballad Of Billy And Manuela Marie
TTITLE2=All Night Long
TTITLE3=Boderline
TTITLE4=The Love Of A Gypsy
TTITLE5=Sombody To ...
TTITLE6=Across The Room To You
TTITLE7=Right Out Of The Blues
TTITLE8=Half Moon Boulevard
TTITLE9=One Good Reason
TTITLE10=I Just Love Myself When I`m With You
TTITLE11=Highway To Freedom
EXTD=YEAR: 1991 ID3G: 2
EXTT0=
EXTT1=
EXTT2=
EXTT3=
EXTT4=
EXTT5=
EXTT6=
EXTT7=
EXTT8=
EXTT9=
EXTT10=
EXTT11=
PLAYORDER=
